<svg width="883" height="254" viewBox="0 0 883 254" fill="none" xmlns="http://www.w3.org/2000/svg">
<mask id="mask0_304_1205" style="mask-type:alpha" maskUnits="userSpaceOnUse" x="0" y="0" width="883" height="254">
<rect x="0.724243" y="0.0346794" width="881.29" height="253.25" fill="#D9D9D9"/>
</mask>
<g mask="url(#mask0_304_1205)">
<path d="M157.979 73.3055L126.688 185.309H100.212L79.1909 105.559L57.2074 185.309L30.8914 185.47L0.724243 73.3055H24.7938L44.5308 160.277L67.3166 73.3055H92.3489L113.851 159.795L133.749 73.3055H157.979Z" fill="white"/>
<path d="M255.286 138.935C255.286 142.144 255.072 145.033 254.644 147.6H189.656C190.191 154.019 192.438 159.047 196.396 162.684C200.354 166.321 205.221 168.14 210.998 168.14C219.342 168.14 225.279 164.556 228.809 157.388H253.039C250.472 165.947 245.551 173.007 238.277 178.57C231.002 184.025 222.07 186.753 211.479 186.753C202.921 186.753 195.219 184.881 188.373 181.137C181.633 177.286 176.338 171.884 172.487 164.93C168.743 157.977 166.87 149.954 166.87 140.861C166.87 131.661 168.743 123.584 172.487 116.631C176.231 109.677 181.473 104.329 188.212 100.584C194.952 96.8402 202.707 94.9681 211.479 94.9681C219.93 94.9681 227.472 96.7867 234.105 100.424C240.844 104.061 246.032 109.249 249.67 115.989C253.414 122.621 255.286 130.27 255.286 138.935ZM232.019 132.517C231.912 126.74 229.826 122.14 225.761 118.717C221.696 115.187 216.721 113.421 210.837 113.421C205.275 113.421 200.568 115.133 196.717 118.556C192.973 121.873 190.673 126.526 189.817 132.517H232.019Z" fill="white"/>
<path d="M294.148 109.41C297.036 105.131 300.995 101.654 306.022 98.9797C311.157 96.3053 316.987 94.9681 323.513 94.9681C331.108 94.9681 337.955 96.8402 344.052 100.584C350.257 104.329 355.124 109.677 358.654 116.631C362.292 123.477 364.11 131.447 364.11 140.54C364.11 149.633 362.292 157.709 358.654 164.77C355.124 171.723 350.257 177.125 344.052 180.977C337.955 184.828 331.108 186.753 323.513 186.753C316.88 186.753 311.05 185.47 306.022 182.902C301.102 180.228 297.143 176.805 294.148 172.632V185.309H271.683V66.5661H294.148V109.41ZM341.164 140.54C341.164 135.191 340.041 130.591 337.794 126.74C335.655 122.782 332.766 119.786 329.129 117.754C325.599 115.721 321.748 114.705 317.576 114.705C313.511 114.705 309.66 115.775 306.022 117.914C302.492 119.947 299.604 122.942 297.357 126.9C295.218 130.858 294.148 135.512 294.148 140.861C294.148 146.209 295.218 150.863 297.357 154.821C299.604 158.779 302.492 161.828 306.022 163.967C309.66 166 313.511 167.016 317.576 167.016C321.748 167.016 325.599 165.947 329.129 163.807C332.766 161.667 335.655 158.619 337.794 154.661C340.041 150.702 341.164 145.996 341.164 140.54Z" fill="white"/>
<path d="M568.383 73.3055L537.092 185.309H510.616L489.595 105.559L467.612 185.309L441.296 185.47L411.129 73.3055H435.198L454.935 160.277L477.721 73.3055H502.753L524.255 159.795L544.153 73.3055H568.383Z" fill="white"/>
<path d="M622.525 186.753C613.967 186.753 606.265 184.881 599.419 181.137C592.572 177.286 587.17 171.884 583.212 164.93C579.361 157.977 577.435 149.954 577.435 140.861C577.435 131.768 579.414 123.745 583.372 116.791C587.437 109.838 592.947 104.489 599.9 100.745C606.854 96.8937 614.609 94.9681 623.167 94.9681C631.725 94.9681 639.481 96.8937 646.435 100.745C653.388 104.489 658.844 109.838 662.802 116.791C666.867 123.745 668.899 131.768 668.899 140.861C668.899 149.954 666.813 157.977 662.641 164.93C658.576 171.884 653.014 177.286 645.953 181.137C639 184.881 631.191 186.753 622.525 186.753ZM622.525 167.177C626.591 167.177 630.388 166.214 633.918 164.288C637.556 162.256 640.444 159.261 642.583 155.302C644.723 151.344 645.793 146.53 645.793 140.861C645.793 132.41 643.546 125.938 639.053 121.445C634.667 116.845 629.265 114.545 622.846 114.545C616.428 114.545 611.026 116.845 606.64 121.445C602.361 125.938 600.221 132.41 600.221 140.861C600.221 149.312 602.307 155.837 606.479 160.437C610.758 164.93 616.107 167.177 622.525 167.177Z" fill="white"/>
<path d="M707.843 110.212C710.732 105.505 714.476 101.815 719.076 99.1402C723.783 96.4658 729.131 95.1286 735.122 95.1286V118.717H729.185C722.124 118.717 716.776 120.375 713.139 123.691C709.608 127.007 707.843 132.784 707.843 141.021V185.309H685.378V96.4123H707.843V110.212Z" fill="white"/>
<path d="M772.718 66.5661V185.309H750.253V66.5661H772.718Z" fill="white"/>
<path d="M789.137 140.54C789.137 131.554 790.902 123.584 794.432 116.631C798.069 109.677 802.99 104.329 809.195 100.584C815.399 96.8402 822.299 94.9681 829.895 94.9681C835.671 94.9681 841.18 96.2518 846.422 98.8193C851.664 101.28 855.836 104.596 858.938 108.768V66.5661H881.724V185.309H858.938V172.151C856.157 176.537 852.252 180.067 847.225 182.742C842.197 185.416 836.367 186.753 829.734 186.753C822.246 186.753 815.399 184.828 809.195 180.977C802.99 177.125 798.069 171.723 794.432 164.77C790.902 157.709 789.137 149.633 789.137 140.54ZM859.099 140.861C859.099 135.405 858.029 130.752 855.89 126.9C853.75 122.942 850.862 119.947 847.225 117.914C843.587 115.775 839.683 114.705 835.511 114.705C831.339 114.705 827.488 115.721 823.957 117.754C820.427 119.786 817.539 122.782 815.292 126.74C813.153 130.591 812.083 135.191 812.083 140.54C812.083 145.889 813.153 150.595 815.292 154.661C817.539 158.619 820.427 161.667 823.957 163.807C827.595 165.947 831.446 167.016 835.511 167.016C839.683 167.016 843.587 166 847.225 163.967C850.862 161.828 853.75 158.833 855.89 154.981C858.029 151.023 859.099 146.316 859.099 140.861Z" fill="white"/>
</g>
</svg>
