<svg xmlns="http://www.w3.org/2000/svg" xmlns:xlink="http://www.w3.org/1999/xlink" viewBox="0 0 881.29 253.25"><defs><style>.cls-1{isolation:isolate;}.cls-12,.cls-2,.cls-9{fill:#fff;}.cls-3{fill:url(#linear-gradient);}.cls-4{fill:url(#linear-gradient-2);}.cls-5{fill:url(#linear-gradient-3);}.cls-6,.cls-7{opacity:0.58;mix-blend-mode:multiply;}.cls-6{fill:url(#linear-gradient-4);}.cls-7{fill:url(#linear-gradient-5);}.cls-8{fill:url(#linear-gradient-6);}.cls-9{opacity:0.17;}.cls-12,.cls-9{mix-blend-mode:overlay;}.cls-10{fill:url(#linear-gradient-7);}.cls-11{fill:url(#linear-gradient-8);}.cls-12{opacity:0.38;}</style><linearGradient id="linear-gradient" x1="-295.13" y1="600.26" x2="-116.35" y2="600.26" gradientTransform="translate(295.13 -473.63)" gradientUnits="userSpaceOnUse"><stop offset="0" stop-color="#b3d334"/><stop offset="1" stop-color="#00a594"/></linearGradient><linearGradient id="linear-gradient-2" x1="-258.6" y1="1812.69" x2="-195.93" y2="1812.69" gradientTransform="translate(-969.98 -1278.04) rotate(-45)" xlink:href="#linear-gradient"/><linearGradient id="linear-gradient-3" x1="-282.95" y1="1675.36" x2="-218.75" y2="1675.36" gradientTransform="translate(-969.98 -1278.04) rotate(-45)" xlink:href="#linear-gradient"/><linearGradient id="linear-gradient-4" x1="-229.7" y1="598.58" x2="-223.72" y2="604.56" gradientTransform="translate(295.13 -473.63)" gradientUnits="userSpaceOnUse"><stop offset="0" stop-color="#87236e"/><stop offset="0.22" stop-color="#a75d94" stop-opacity="0.73"/><stop offset="0.58" stop-color="#d6b4ce" stop-opacity="0.34"/><stop offset="0.85" stop-color="#f4ebf2" stop-opacity="0.09"/><stop offset="1" stop-color="#fff" stop-opacity="0"/></linearGradient><linearGradient id="linear-gradient-5" x1="-180.03" y1="603.41" x2="-187.96" y2="595.48" xlink:href="#linear-gradient-4"/><linearGradient id="linear-gradient-6" x1="-295.13" y1="551.89" x2="-191.14" y2="551.89" gradientTransform="translate(295.13 -473.63)" gradientUnits="userSpaceOnUse"><stop offset="0" stop-color="#262c6c"/><stop offset="1" stop-color="#3ac0f0"/></linearGradient><linearGradient id="linear-gradient-7" x1="-220.34" y1="648.63" x2="-116.35" y2="648.63" xlink:href="#linear-gradient-6"/><linearGradient id="linear-gradient-8" x1="-176.41" y1="-761.75" x2="-143.42" y2="-728.76" gradientTransform="translate(-222.24 730.06) rotate(45)" xlink:href="#linear-gradient"/></defs><g class="cls-1"><g id="Layer_2" data-name="Layer 2"><g id="Layer_1-2" data-name="Layer 1"><path class="cls-2" d="M263,133.9A37.89,37.89,0,0,1,250.4,128l5.54-12.29a37.51,37.51,0,0,0,10.79,5.34,40.28,40.28,0,0,0,12.49,2q7,0,10.28-2.07a6.24,6.24,0,0,0,3.33-5.49,5.27,5.27,0,0,0-2-4.19,15.24,15.24,0,0,0-5-2.67q-3.09-1-8.32-2.21a116.22,116.22,0,0,1-13.2-3.83,21.47,21.47,0,0,1-8.82-6.15q-3.68-4.23-3.68-11.29A19.64,19.64,0,0,1,255.14,74a22.4,22.4,0,0,1,10-7.91,41.09,41.09,0,0,1,16.38-2.92,54.46,54.46,0,0,1,13.2,1.61A39,39,0,0,1,306,69.45l-5,12.4a39.27,39.27,0,0,0-19.55-5.55q-6.85,0-10.13,2.22A6.78,6.78,0,0,0,268,84.37q0,3.61,3.77,5.39a59.69,59.69,0,0,0,11.55,3.47,117.46,117.46,0,0,1,13.2,3.83,22.05,22.05,0,0,1,8.82,6q3.67,4.14,3.67,11.19a19.24,19.24,0,0,1-3.37,11,22.6,22.6,0,0,1-10.13,7.91,41.27,41.27,0,0,1-16.43,2.93A57.69,57.69,0,0,1,263,133.9Z"/><path class="cls-2" d="M437,64.41,413.87,135H396.33L380.81,87.19l-16,47.77H347.35L324.17,64.41H341.1L357,114l16.62-49.59h15.12l16.13,50,16.43-50Z"/><path class="cls-2" d="M500.24,119.84H467.48L461.23,135H444.5L476,64.41h16.12L523.62,135H506.48Zm-5.14-12.4-11.19-27-11.19,27Z"/><path class="cls-2" d="M548.05,133.9a37.92,37.92,0,0,1-12.54-5.9l5.54-12.29a37.45,37.45,0,0,0,10.78,5.34,40.34,40.34,0,0,0,12.5,2q7,0,10.28-2.07a6.24,6.24,0,0,0,3.33-5.49,5.27,5.27,0,0,0-2-4.19,15.19,15.19,0,0,0-5-2.67q-3.07-1-8.31-2.21a116.22,116.22,0,0,1-13.2-3.83,21.47,21.47,0,0,1-8.82-6.15q-3.68-4.23-3.68-11.29A19.7,19.7,0,0,1,540.24,74a22.43,22.43,0,0,1,10-7.91,41.09,41.09,0,0,1,16.38-2.92,54.46,54.46,0,0,1,13.2,1.61,39.1,39.1,0,0,1,11.29,4.64l-5,12.4a39.32,39.32,0,0,0-19.55-5.55q-6.85,0-10.13,2.22a6.79,6.79,0,0,0-3.28,5.85q0,3.61,3.78,5.39a59.77,59.77,0,0,0,11.54,3.47,117.08,117.08,0,0,1,13.21,3.83,22,22,0,0,1,8.81,6q3.69,4.14,3.68,11.19a19.24,19.24,0,0,1-3.37,11,22.6,22.6,0,0,1-10.13,7.91,41.27,41.27,0,0,1-16.43,2.93A57.81,57.81,0,0,1,548.05,133.9Z"/><path class="cls-2" d="M629,77.71H606.46V64.41h61.47v13.3H645.36V135H629Z"/><path class="cls-2" d="M686.78,64.41h16.33V135H686.78Z"/><path class="cls-2" d="M755.61,107.24l-9.47,9.88V135H729.91V64.41h16.23v33l31.24-33h18.14L766.3,95.85,797.24,135h-19Z"/><path class="cls-2" d="M857.91,119.84H825.15L818.9,135H802.17l31.45-70.55h16.12L881.29,135H864.16Zm-5.14-12.4-11.19-27-11.19,27Z"/><path class="cls-2" d="M283.06,170.65v35.91h-4.69V170.65Z"/><path class="cls-2" d="M383.14,206.56h-4.68L359.6,178v28.59h-4.68v-36h4.68l18.86,28.54V170.6h4.68Z"/><path class="cls-2" d="M475.29,170.65v3.82h-15.6v12.1h12.67v3.81H459.69v16.18H455V170.65Z"/><path class="cls-2" d="M552,204.57a17.11,17.11,0,0,1-6.51-6.54,19.8,19.8,0,0,1,0-18.9,17.11,17.11,0,0,1,6.51-6.54,19,19,0,0,1,18.29,0,17,17,0,0,1,6.49,6.51,20.14,20.14,0,0,1,0,19,17,17,0,0,1-6.49,6.51,19,19,0,0,1-18.29,0Zm15.9-3.47a12.34,12.34,0,0,0,4.73-5,17.27,17.27,0,0,0,0-15.07,12.48,12.48,0,0,0-4.71-5,14.09,14.09,0,0,0-13.6,0,12.48,12.48,0,0,0-4.71,5,17.27,17.27,0,0,0,0,15.07,12.36,12.36,0,0,0,4.74,5,14,14,0,0,0,13.55,0Z"/><path class="cls-2" d="M654.22,205.66a10.56,10.56,0,0,1-4.41-3.51,9,9,0,0,1-1.64-5.17h5a6.58,6.58,0,0,0,2.09,4.25,7.48,7.48,0,0,0,5.33,1.72,7.83,7.83,0,0,0,5.28-1.67,5.43,5.43,0,0,0,1.93-4.3,4.9,4.9,0,0,0-1.13-3.35,7.28,7.28,0,0,0-2.84-2,42.17,42.17,0,0,0-4.58-1.44,40,40,0,0,1-5.69-1.86,9,9,0,0,1-3.66-2.91,8.56,8.56,0,0,1-1.52-5.33,9.29,9.29,0,0,1,1.49-5.2,9.75,9.75,0,0,1,4.2-3.5,14.71,14.71,0,0,1,6.21-1.24,13,13,0,0,1,8.27,2.52,9.39,9.39,0,0,1,3.63,6.7H667a5.57,5.57,0,0,0-2.17-3.63,7.67,7.67,0,0,0-5.05-1.57,7.3,7.3,0,0,0-4.78,1.52,5.18,5.18,0,0,0-1.86,4.25,4.59,4.59,0,0,0,1.11,3.19,7.22,7.22,0,0,0,2.73,1.88q1.62.64,4.56,1.47a43.67,43.67,0,0,1,5.72,1.93,9.6,9.6,0,0,1,3.7,2.94,8.52,8.52,0,0,1,1.55,5.38,9.4,9.4,0,0,1-1.39,4.94,10.29,10.29,0,0,1-4.12,3.77,13.63,13.63,0,0,1-6.44,1.44A15.36,15.36,0,0,1,654.22,205.66Z"/><path class="cls-2" d="M768.44,170.65,756.75,193v13.55h-4.69V193l-11.74-22.36h5.2l8.86,18.19,8.86-18.19Z"/><path class="cls-2" d="M842.28,205.66a10.52,10.52,0,0,1-4.4-3.51,8.89,8.89,0,0,1-1.65-5.17h5a6.57,6.57,0,0,0,2.08,4.25,7.49,7.49,0,0,0,5.33,1.72,7.81,7.81,0,0,0,5.28-1.67,5.43,5.43,0,0,0,1.93-4.3,4.85,4.85,0,0,0-1.13-3.35,7.24,7.24,0,0,0-2.83-2,42.45,42.45,0,0,0-4.59-1.44,40.44,40.44,0,0,1-5.69-1.86,9,9,0,0,1-3.65-2.91,8.5,8.5,0,0,1-1.52-5.33,9.21,9.21,0,0,1,1.49-5.2,9.64,9.64,0,0,1,4.2-3.5,14.67,14.67,0,0,1,6.2-1.24,13,13,0,0,1,8.27,2.52,9.32,9.32,0,0,1,3.63,6.7h-5.15a5.56,5.56,0,0,0-2.16-3.63,7.67,7.67,0,0,0-5-1.57,7.33,7.33,0,0,0-4.79,1.52,5.17,5.17,0,0,0-1.85,4.25,4.63,4.63,0,0,0,1.1,3.19,7.22,7.22,0,0,0,2.73,1.88q1.62.64,4.56,1.47a43.16,43.16,0,0,1,5.72,1.93,9.63,9.63,0,0,1,3.71,2.94,8.52,8.52,0,0,1,1.54,5.38,9.4,9.4,0,0,1-1.39,4.94,10.22,10.22,0,0,1-4.12,3.77,13.6,13.6,0,0,1-6.44,1.44A15.36,15.36,0,0,1,842.28,205.66Z"/><path class="cls-3" d="M171.53,156.51H32L29.48,154,7.25,131.74a24.74,24.74,0,0,1,0-35H146.76l24.77,24.77A24.76,24.76,0,0,1,171.53,156.51Z"/><path class="cls-4" d="M170,139.05a66.38,66.38,0,0,1,3.61,21.72.07.07,0,0,1,0,0V206a61.35,61.35,0,0,1-55.44-35.21,60,60,0,0,1-3.65-9.92s0,0,0,0a60.07,60.07,0,0,1-2.16-16.08v-5.64Z"/><path class="cls-5" d="M58.58,59.89A61.07,61.07,0,0,1,73.46,84a59.45,59.45,0,0,1,2.38,9.91s0,0,0,.06a62,62,0,0,1,.7,9.21v5.63H16.74a68.19,68.19,0,0,1-1.45-9.75V42A61,61,0,0,1,58.58,59.89Z"/><polygon class="cls-6" points="102.2 96.74 42.42 156.51 32.02 156.51 29.48 153.97 86.71 96.74 102.2 96.74"/><polygon class="cls-7" points="149.58 99.56 92.62 156.51 77.15 156.51 136.92 96.74 146.76 96.74 149.58 99.56"/><path class="cls-8" d="M104,0V46.69a91.38,91.38,0,0,1-26.77,64.62L32,156.51,7.25,131.74a24.74,24.74,0,0,1,0-35h0L74.79,29.2Z"/><path class="cls-9" d="M104,0V8.45L83.24,29.2,15.7,96.74a24.74,24.74,0,0,0,0,35L36.25,152.3,32,156.51,7.25,131.74a24.74,24.74,0,0,1,0-35L74.79,29.2Z"/><path class="cls-10" d="M171.53,121.51a24.76,24.76,0,0,1,0,35h0L104,224.05l-29.2,29.2V185.93A41.61,41.61,0,0,1,87,156.51h0l17-17,42.77-42.77Z"/><path class="cls-9" d="M150,100l-39.58,39.56-17,17a41.62,41.62,0,0,0-12.19,29.42v60.92l-6.4,6.4V185.93A41.62,41.62,0,0,1,87,156.51l17-17,42.77-42.77Z"/><circle class="cls-11" cx="191.66" cy="87.79" r="24.62"/><path class="cls-12" d="M175.94,106.73a20,20,0,0,1-1.68-1.53,24.62,24.62,0,0,1,34.82-34.82,18.43,18.43,0,0,1,1.53,1.68,24.62,24.62,0,0,0-34.67,34.67Z"/></g></g></g></svg>