<svg width="73" height="89" viewBox="0 0 73 89" fill="none" xmlns="http://www.w3.org/2000/svg">
<path d="M11.8497 51.9851C11.8497 33.6344 27.5142 18.7973 47.0309 17.5147L46.1225 16.8459L43.5898 17.6471C20.9144 15.3165 1.3042 31.4526 1.3042 51.9851C1.3042 73.532 22.4507 89.1079 44.5579 86.2363C26.7207 83.922 11.8497 70.0538 11.8497 51.9851Z" fill="#76C044"/>
<path d="M53.3415 20.0387C51.4541 19.3756 48.0782 17.6887 47.0479 13.8997C45.9398 9.82416 48.6256 7.66072 50.2939 3.62743C49.5039 3.09014 48.702 2.46488 47.9143 1.68093C47.2216 0.991535 46.1141 1.2926 45.8659 2.23787C44.4379 7.67428 40.6534 9.82868 41.9336 14.5369C42.9639 18.3262 46.3397 20.0128 48.2271 20.6759L49.2946 21.5463L53.8742 20.4729L53.3415 20.0387Z" fill="#76C044"/>
<path d="M55.2321 31.7803L52.2426 20.7848C52.1767 20.543 52.1607 20.2904 52.1955 20.0423C52.2302 19.7942 52.315 19.5557 52.4447 19.3413L48.9223 20.2989C47.9953 20.551 47.4479 21.5069 47.7001 22.4341L50.5022 32.7407L51.5108 33.4754L56.0675 32.3888L55.2321 31.7803Z" fill="#76C044"/>
<path d="M70.8128 82.8594C67.9037 77.7863 65.7472 72.3173 64.411 66.6239L57.2787 35.7371L57.4129 35.0884L53.5001 35.974L53.1895 37.4754L60.3217 68.3622C61.6579 74.0556 63.8144 79.5245 66.7236 84.5977L67.9247 86.6925C68.1446 87.0759 68.4855 87.3756 68.8939 87.5446C69.3024 87.7136 69.7553 87.7423 70.1819 87.6263C70.6084 87.5103 70.9844 87.2562 71.2511 86.9036C71.5177 86.5511 71.6599 86.12 71.6553 85.678L71.6413 84.3043L70.8128 82.8594Z" fill="#76C044"/>
<path d="M55.5685 35.3307L54.9126 32.9185C54.7618 32.3633 54.9279 31.7978 55.2994 31.4109L50.7495 32.648C50.5621 32.699 50.3866 32.7863 50.2329 32.9051C50.0793 33.0238 49.9506 33.1717 49.8541 33.3402C49.7576 33.5087 49.6953 33.6946 49.6706 33.8872C49.646 34.0798 49.6595 34.2754 49.7105 34.4628L50.3248 36.722C50.4277 37.1004 50.6767 37.4224 51.0171 37.6173C51.3574 37.8121 51.7611 37.8638 52.1396 37.761L56.8595 36.4776C56.5562 36.4325 56.2726 36.3 56.0433 36.0963C55.8141 35.8926 55.6491 35.6266 55.5685 35.3307Z" fill="#76C044"/>
<path d="M20.993 43.1453C24.842 43.1453 27.9734 40.0138 27.9734 36.1648C27.9734 32.3158 24.8419 29.1843 20.993 29.1843C17.1438 29.1843 14.0125 32.3158 14.0125 36.1648C14.0125 40.0138 17.1438 43.1453 20.993 43.1453ZM20.993 31.7917C23.4043 31.7917 25.366 33.7535 25.366 36.1648C25.366 38.5761 23.4043 40.5379 20.993 40.5379C18.5817 40.5379 16.6199 38.5761 16.6199 36.1648C16.6199 33.7535 18.5817 31.7917 20.993 31.7917ZM36.362 35.8392C40.1174 35.8392 43.1729 32.7839 43.1729 29.0284C43.1729 25.2729 40.1175 22.2175 36.362 22.2175C32.6065 22.2175 29.551 25.2729 29.551 29.0284C29.551 32.7839 32.6065 35.8392 36.362 35.8392ZM36.362 24.8249C38.6798 24.8249 40.5655 26.7106 40.5655 29.0284C40.5655 31.3462 38.6798 33.2318 36.362 33.2318C34.0442 33.2318 32.1584 31.3462 32.1584 29.0284C32.1584 26.7106 34.0442 24.8249 36.362 24.8249ZM23.7953 76.2196C27.5506 76.2196 30.6061 73.1642 30.6061 69.4087C30.6061 65.6532 27.5508 62.5978 23.7953 62.5978C20.0398 62.5978 16.9842 65.6532 16.9842 69.4087C16.9842 73.1642 20.0398 76.2196 23.7953 76.2196ZM23.7953 65.2054C26.1131 65.2054 27.9987 67.0911 27.9987 69.4089C27.9987 71.7267 26.1131 73.6123 23.7953 73.6123C21.4775 73.6123 19.5916 71.7267 19.5916 69.4089C19.5916 67.0911 21.4775 65.2054 23.7953 65.2054ZM39.834 81.3662C43.5894 81.3662 46.6449 78.3109 46.6449 74.5553C46.6449 70.7998 43.5895 67.7445 39.834 67.7445C36.0785 67.7445 33.023 70.7998 33.023 74.5553C33.023 78.3109 36.0783 81.3662 39.834 81.3662ZM39.834 70.3519C42.1518 70.3519 44.0375 72.2376 44.0375 74.5553C44.0375 76.8731 42.1518 78.7588 39.834 78.7588C37.5162 78.7588 35.6304 76.8731 35.6304 74.5553C35.6304 72.2376 37.5162 70.3519 39.834 70.3519ZM6.74658 53.3519C6.74658 57.7345 10.3121 61.3001 14.6948 61.3001C19.0775 61.3001 22.643 57.7345 22.643 53.3519C22.643 48.9692 19.0775 45.4037 14.6948 45.4037C10.3121 45.4037 6.74658 48.9692 6.74658 53.3519ZM14.6948 48.0111C17.6396 48.0111 20.0356 50.4069 20.0356 53.3519C20.0356 56.2968 17.6397 58.6927 14.6948 58.6927C11.7498 58.6927 9.35397 56.2968 9.35397 53.3519C9.35397 50.4069 11.7498 48.0111 14.6948 48.0111Z" fill="black"/>
<path d="M0 51.985C0 71.6515 16.9423 86.6004 36.7126 87.8047C37.0565 87.8236 37.394 87.7057 37.6513 87.4766C37.9085 87.2476 38.0647 86.926 38.0856 86.5822C38.1066 86.2384 37.9906 85.9002 37.763 85.6417C37.5355 85.3831 37.2148 85.2251 36.8711 85.2021C17.6578 84.0318 2.60739 69.4411 2.60739 51.985C2.60739 32.2073 21.4385 16.9465 42.958 18.8958C43.937 19.916 45.1416 20.7337 46.4022 21.3322C46.3008 21.8099 46.3145 22.3049 46.442 22.7763L49.0223 32.2667C48.728 32.6115 48.5223 33.0229 48.423 33.4651C48.3237 33.9074 48.3338 34.3672 48.4525 34.8047L49.0666 37.0641C49.4401 38.4403 50.8153 39.3206 52.2208 39.0769L53.4387 44.3506C49.0349 46.3567 46.6269 49.0432 46.6269 51.9852C46.6269 54.9376 49.088 57.6688 53.5567 59.6751C55.1458 60.3885 56.5209 61.3662 57.6489 62.5835C59.083 68.8788 59.524 70.8763 60.5751 74.0409C59.602 78.2854 56.6925 81.5391 52.5466 82.9991C49.3863 84.1123 46.099 84.8248 42.7614 85.1199C42.417 85.1503 42.0987 85.3162 41.8766 85.5812C41.6545 85.8462 41.5468 86.1885 41.5771 86.5329C41.6402 87.2503 42.2752 87.7796 42.9901 87.7172C46.5451 87.4029 50.0465 86.6441 53.4126 85.4584C57.2477 84.1079 60.2758 81.3719 61.9834 77.8439C63.7269 82.1214 65.316 84.7648 66.7934 87.3411C67.1568 87.9747 67.7201 88.47 68.3951 88.7493C69.07 89.0286 69.8186 89.0762 70.5235 88.8846C71.2283 88.6928 71.8496 88.2727 72.2903 87.6901C72.7309 87.1075 72.9659 86.3953 72.9586 85.6649C72.9138 81.2976 73.0289 74.7328 69.9605 64.9514C69.8556 64.6232 69.625 64.3499 69.3192 64.1912C69.0134 64.0325 68.6572 64.0013 68.3284 64.1044C67.9997 64.2076 67.7251 64.4366 67.5648 64.7416C67.4044 65.0465 67.3713 65.4026 67.4727 65.7319C70.353 74.9127 70.3033 81.0037 70.3514 85.6916C70.3531 85.8452 70.3037 85.995 70.2111 86.1176C70.1185 86.2401 69.9878 86.3285 69.8396 86.3688C69.6914 86.4091 69.5339 86.399 69.392 86.3403C69.2501 86.2815 69.1317 86.1773 69.0554 86.044C63.5701 76.4781 62.879 73.6408 60.1138 61.668L54.7418 38.4042L58.5728 37.3626L60.5144 43.5515L65.651 59.9247C65.7559 60.2529 65.9864 60.5262 66.2923 60.6849C66.5981 60.8436 66.9543 60.8748 67.283 60.7717C67.6118 60.6685 67.8863 60.4394 68.0467 60.1345C68.207 59.8295 68.2401 59.4735 68.1388 59.1442L63.3845 43.9895C70.5675 41.0792 72.5767 31.4322 66.4273 26.0621C63.9073 23.8617 61.0825 21.9847 58.0294 20.4677L57.8161 19.6834C57.6887 19.2119 57.449 18.7782 57.1175 18.4194C58.4335 16.4762 59.7466 13.4707 58.7904 9.95351C57.8724 6.57764 55.6157 5.27516 53.2266 3.89637C51.7776 3.06009 50.2792 2.19531 48.8337 0.75655C47.429 -0.640837 45.1087 -0.0131515 44.6045 1.90624C44.0865 3.87899 43.2319 5.38345 42.4059 6.83838C41.0287 9.26377 39.3514 12.0864 41.1279 16.1638C18.9975 15.2111 0 31.2627 0 51.985ZM56.6856 58.4124C56.0271 57.99 55.3383 57.617 54.6247 57.2964C51.1989 55.7583 49.2342 53.8224 49.2342 51.985C49.2342 50.236 50.9651 48.4391 54.0384 46.9484L56.6856 58.4124ZM64.712 28.0264C69.3272 32.0565 67.8388 39.2449 62.6019 41.496L61.0867 36.6661C62.4503 36.1441 63.154 34.6827 62.7874 33.3335L62.1732 31.0741C62.0537 30.6369 61.8295 30.2354 61.5199 29.9043C61.2103 29.5732 60.8248 29.3226 60.3966 29.174L58.9691 23.9239C61.0244 25.1124 62.9478 26.4858 64.712 28.0264ZM59.4424 31.6352L59.443 31.635C59.5267 31.6124 59.63 31.6583 59.6569 31.7581L60.2711 34.0173C60.2832 34.0621 60.2771 34.1098 60.254 34.1501C60.231 34.1903 60.1929 34.2198 60.1482 34.232L51.797 36.5025C51.7749 36.5085 51.7517 36.5101 51.729 36.5072C51.7062 36.5043 51.6842 36.4969 51.6642 36.4855C51.6443 36.4741 51.6268 36.4589 51.6128 36.4407C51.5987 36.4225 51.5884 36.4018 51.5824 36.3796L50.9682 34.1202C50.9413 34.0206 51.0096 33.9276 51.0911 33.9055L59.4424 31.6352ZM57.7537 29.3923L51.4117 31.1165L48.9581 22.092C48.8947 21.8599 49.0402 21.6181 49.2644 21.5569L54.7653 20.0613C54.9789 20.0027 55.2327 20.1194 55.3002 20.3676L57.7537 29.3923ZM44.6733 8.12626C45.5219 6.63205 46.4811 4.94263 47.0917 2.70114C48.7473 4.32207 50.433 5.2948 51.9234 6.15507C54.0803 7.39984 55.6386 8.29904 56.2745 10.638C57.0516 13.4961 55.7137 15.9881 54.6054 17.4512C54.4375 17.4663 54.2409 17.5021 54.0809 17.5455L48.58 19.0411C48.4123 19.0867 48.22 19.1592 48.0806 19.2251C45.7745 18.2786 43.8506 16.6211 43.1911 14.1952C42.5552 11.8562 43.4437 10.2916 44.6733 8.12626Z" fill="black"/>
</svg>
