<svg width="77" height="77" viewBox="0 0 77 77" fill="none" xmlns="http://www.w3.org/2000/svg">
<mask id="mask0_196_67" style="mask-type:alpha" maskUnits="userSpaceOnUse" x="0" y="0" width="77" height="77">
<rect width="77" height="77" fill="#D9D9D9"/>
</mask>
<g mask="url(#mask0_196_67)">
<path d="M10.1939 69.0361L4.5 0L72.5 0.138734L66.4793 69.0361L38.7566 77L10.1939 69.0361Z" fill="#1B73BA"/>
<path d="M38.7578 70.3324V6.57471L66.7607 6.6672L61.767 63.7113L38.7578 70.3324Z" fill="#1C88C7"/>
<path d="M59.804 14.7244H16.7266L17.8935 23.0582H38.3352L18.2204 31.6243L19.3868 39.6807H49.0233L47.9495 50.9317L37.9151 52.8767L28.8147 50.5618L28.1144 44.1718H19.7602L20.88 57.4609L38.8019 62.4151L55.9774 56.9979L58.1709 31.0221H40.0149L59.8035 22.8732L59.804 14.7244Z" fill="white"/>
</g>
</svg>
