<svg width="77" height="77" viewBox="0 0 77 77" fill="none" xmlns="http://www.w3.org/2000/svg">
<mask id="mask0_484_14" style="mask-type:alpha" maskUnits="userSpaceOnUse" x="0" y="0" width="77" height="77">
<rect width="77" height="77" fill="#D9D9D9"/>
</mask>
<g mask="url(#mask0_484_14)">
<path d="M75.7549 17.4194C75.7826 17.5221 75.7968 17.6279 75.7971 17.7342V34.2621C75.7971 34.4742 75.7411 34.6826 75.6348 34.8662C75.5284 35.0497 75.3755 35.202 75.1915 35.3075L61.3194 43.2943V59.1246C61.3194 59.5555 61.0904 59.9531 60.7169 60.1701L31.76 76.8395C31.6937 76.8772 31.6214 76.9013 31.5491 76.9269C31.522 76.9359 31.4964 76.9525 31.4677 76.96C31.2653 77.0133 31.0526 77.0133 30.8501 76.96C30.817 76.951 30.7869 76.9329 30.7552 76.9208C30.689 76.8967 30.6197 76.8757 30.5564 76.8395L1.60556 60.1701C1.42164 60.0644 1.26883 59.9121 1.16251 59.7286C1.0562 59.5451 1.00015 59.3368 1 59.1246V9.54112C1 9.43267 1.01506 9.32722 1.04218 9.22479C1.05122 9.19014 1.07231 9.15851 1.08436 9.12386C1.10695 9.06059 1.12804 8.99582 1.16118 8.93707C1.18378 8.89791 1.21692 8.86627 1.24403 8.83012C1.27868 8.78192 1.31031 8.73221 1.35098 8.69003C1.38563 8.65538 1.43082 8.62977 1.46999 8.59965C1.51367 8.56349 1.55284 8.52433 1.60255 8.49571L16.0802 0.160987C16.2635 0.0555122 16.4713 0 16.6828 0C16.8942 0 17.102 0.0555122 17.2853 0.160987L31.7615 8.49571H31.7645C31.8127 8.52583 31.8534 8.56349 31.8971 8.59814C31.9362 8.62827 31.9799 8.65538 32.0146 8.68852C32.0567 8.73221 32.0869 8.78192 32.123 8.83012C32.1486 8.86627 32.1833 8.89791 32.2044 8.93707C32.239 8.99733 32.2586 9.06059 32.2827 9.12386C32.2947 9.15851 32.3158 9.19014 32.3249 9.22629C32.3526 9.32895 32.3668 9.43479 32.367 9.54112V40.5105L44.43 33.5646V17.7327C44.43 17.6273 44.4451 17.5203 44.4722 17.4194C44.4827 17.3833 44.5023 17.3516 44.5144 17.317C44.5385 17.2537 44.5596 17.1889 44.5927 17.1302C44.6153 17.091 44.6484 17.0594 44.6741 17.0232C44.7102 16.975 44.7403 16.9253 44.7825 16.8831C44.8172 16.8485 44.8608 16.8229 44.9 16.7928C44.9452 16.7566 44.9844 16.7175 45.0326 16.6888L59.5118 8.35411C59.695 8.24849 59.9028 8.19289 60.1143 8.19289C60.3258 8.19289 60.5336 8.24849 60.7169 8.35411L75.193 16.6888C75.2442 16.719 75.2834 16.7566 75.3286 16.7913C75.3663 16.8214 75.4099 16.8485 75.4446 16.8816C75.4868 16.9253 75.5169 16.975 75.553 17.0232C75.5802 17.0594 75.6133 17.091 75.6344 17.1302C75.669 17.1889 75.6886 17.2537 75.7127 17.317C75.7263 17.3516 75.7459 17.3833 75.7549 17.4194ZM73.3839 33.5646V19.8206L68.318 22.7369L61.3194 26.7664V40.5105L73.3854 33.5646H73.3839ZM58.9077 58.4272V44.6741L52.0236 48.6057L32.3655 59.8251V73.7078L58.9077 58.4272ZM3.4132 11.6274V58.4272L29.9523 73.7063V59.8266L16.0878 51.98L16.0832 51.9769L16.0772 51.9739C16.0305 51.9468 15.9914 51.9077 15.9477 51.8745C15.91 51.8444 15.8663 51.8203 15.8332 51.7871L15.8302 51.7826C15.791 51.745 15.7639 51.6983 15.7307 51.6561C15.7006 51.6154 15.6645 51.5808 15.6404 51.5386L15.6389 51.5341C15.6117 51.4889 15.5952 51.4347 15.5756 51.3834C15.556 51.3382 15.5304 51.2961 15.5184 51.2479C15.5033 51.1906 15.5003 51.1289 15.4942 51.0701C15.4882 51.0249 15.4762 50.9797 15.4762 50.9345V18.5733L8.47911 14.5423L3.4132 11.6274ZM16.6843 2.59829L4.62281 9.54112L16.6813 16.484L28.7412 9.53962L16.6813 2.59829H16.6843ZM22.9568 45.9274L29.9539 41.8994V11.6274L24.8879 14.5438L17.8894 18.5733V48.8452L22.9568 45.9274ZM60.1143 10.7914L48.0543 17.7342L60.1143 24.6771L72.1728 17.7327L60.1143 10.7914ZM58.9077 26.7664L51.9091 22.7369L46.8432 19.8206V33.5646L53.8403 37.5927L58.9077 40.5105V26.7664ZM31.1574 57.7388L48.8467 47.6401L57.6891 42.5938L45.6381 35.6555L31.763 43.6437L19.1171 50.924L31.1574 57.7388Z" fill="#FF2D20"/>
</g>
</svg>
