<svg width="77" height="77" viewBox="0 0 77 77" fill="none" xmlns="http://www.w3.org/2000/svg">
<path d="M38.5 77C59.763 77 77 59.763 77 38.5C77 17.237 59.763 0 38.5 0C17.237 0 0 17.237 0 38.5C0 59.763 17.237 77 38.5 77Z" fill="#1FBBEB"/>
<path d="M10.1318 18.2368C17.4099 25.8337 24.2117 26.9709 51.0101 26.9709C77.8086 26.9709 66.0276 32.8891 49.4761 47.5455C54.7229 38.4916 72.7578 30.4787 43.1948 30.9303C14.8687 31.3547 13.1935 22.7983 10.1318 18.2368Z" fill="white"/>
<path d="M29.208 54.7473C29.2072 55.5424 28.9687 56.3194 28.5228 56.98C28.0769 57.6407 27.4435 58.1553 26.7028 58.4588C25.962 58.7623 25.1472 58.841 24.3614 58.6851C23.5755 58.5292 22.8539 58.1456 22.2878 57.5828C21.7217 57.02 21.3366 56.3033 21.181 55.5233C21.0255 54.7434 21.1066 53.9351 21.4141 53.2009C21.7215 52.4667 22.2415 51.8394 22.9083 51.3983C23.5752 50.9573 24.3588 50.7223 25.1602 50.7231C25.6925 50.7231 26.2196 50.8273 26.7112 51.0296C27.2029 51.232 27.6494 51.5285 28.0254 51.9023C28.4014 52.2761 28.6994 52.7198 28.9023 53.208C29.1052 53.6962 29.2091 54.2193 29.208 54.7473Z" fill="white"/>
<path d="M47.6699 54.7473C47.6691 55.5424 47.4306 56.3194 46.9847 56.98C46.5388 57.6407 45.9054 58.1553 45.1647 58.4588C44.4239 58.7623 43.6091 58.841 42.8233 58.6851C42.0374 58.5292 41.3158 58.1456 40.7497 57.5828C40.1837 57.02 39.7985 56.3033 39.643 55.5233C39.4874 54.7434 39.5685 53.9351 39.876 53.2009C40.1834 52.4667 40.7035 51.8394 41.3703 51.3983C42.0371 50.9573 42.8207 50.7223 43.6221 50.7231C44.1544 50.7231 44.6815 50.8273 45.1731 51.0296C45.6648 51.232 46.1114 51.5285 46.4873 51.9023C46.8633 52.2761 47.1613 52.7198 47.3642 53.208C47.5672 53.6962 47.671 54.2193 47.6699 54.7473Z" fill="white"/>
</svg>
