<svg width="77" height="77" viewBox="0 0 77 77" fill="none" xmlns="http://www.w3.org/2000/svg">
<mask id="mask0_484_15" style="mask-type:alpha" maskUnits="userSpaceOnUse" x="0" y="0" width="77" height="77">
<rect width="77" height="77" fill="#D9D9D9"/>
</mask>
<g mask="url(#mask0_484_15)">
<mask id="mask1_484_15" style="mask-type:luminance" maskUnits="userSpaceOnUse" x="0" y="19" width="77" height="40">
<path d="M0 39C0 50.0456 17.2374 59 38.4999 59C59.7625 59 77 50.0456 77 39C77 27.9545 59.7625 19 38.4999 19C17.2374 19 0 27.9545 0 39Z" fill="white"/>
</mask>
<g mask="url(#mask1_484_15)">
<path d="M0 39C0 50.0456 17.2374 59 38.4999 59C59.7625 59 77 50.0456 77 39C77 27.9545 59.7625 19 38.4999 19C17.2374 19 0 27.9545 0 39Z" fill="url(#paint0_radial_484_15)"/>
</g>
<path d="M38.4999 57.5151C58.932 57.5151 75.496 49.2256 75.496 39C75.496 28.7746 58.932 20.4849 38.4999 20.4849C18.0679 20.4849 1.50391 28.7746 1.50391 39C1.50391 49.2256 18.0679 57.5151 38.4999 57.5151Z" fill="#777BB3"/>
<path d="M20.9174 41.2957C22.5975 41.2957 23.8517 40.9897 24.6453 40.3866C25.4304 39.7896 25.9726 38.7554 26.2569 37.3127C26.5218 35.9642 26.4209 35.0227 25.9569 34.5146C25.4825 33.9956 24.4568 33.7324 22.9083 33.7324H20.2234L18.735 41.2957H20.9174ZM12.1359 50.6123C12.0113 50.6123 11.8929 50.5573 11.8137 50.4621C11.7343 50.3671 11.7021 50.242 11.7259 50.1211L15.6706 30.0782C15.7088 29.8844 15.8808 29.7444 16.0807 29.7444H24.5825C27.2544 29.7444 29.2432 30.4609 30.4933 31.8741C31.75 33.2948 32.1381 35.2807 31.6467 37.7764C31.4467 38.7932 31.1028 39.7375 30.6244 40.5829C30.1456 41.4293 29.5127 42.2125 28.743 42.9111C27.8218 43.7626 26.779 44.38 25.6467 44.7433C24.5322 45.1018 23.101 45.2836 21.3928 45.2836H17.9503L16.9672 50.2784C16.929 50.4723 16.7572 50.6123 16.5572 50.6123H12.1359Z" fill="black"/>
<path d="M20.5676 34.1447H22.9081C24.777 34.1447 25.4262 34.5497 25.6467 34.791C26.0127 35.1918 26.0818 36.0367 25.8466 37.2343C25.5823 38.575 25.0924 39.5257 24.3903 40.0595C23.6715 40.606 22.5029 40.8829 20.9172 40.8829H19.2415L20.5676 34.1447ZM24.5823 29.3317H16.0804C15.6805 29.3317 15.3367 29.6117 15.2603 29.9993L11.3157 50.0423C11.268 50.2841 11.3324 50.5343 11.491 50.7245C11.6497 50.9146 11.8862 51.0247 12.1357 51.0247H16.5569C16.957 51.0247 17.3008 50.7447 17.3771 50.357L18.2945 45.696H21.3927C23.1447 45.696 24.6196 45.5073 25.7761 45.1353C26.9654 44.7537 28.0597 44.1067 29.0282 43.2123C29.8291 42.4846 30.4889 41.6677 30.9888 40.7842C31.4889 39.9004 31.8481 38.9148 32.0566 37.8549C32.5739 35.2278 32.1536 33.1241 30.8076 31.6026C29.4747 30.0957 27.3801 29.3317 24.5823 29.3317ZM18.2279 41.708H20.9172C22.6998 41.708 24.0275 41.3765 24.8999 40.7133C25.7725 40.0499 26.361 38.9428 26.6668 37.3913C26.9593 35.9018 26.8261 34.8506 26.267 34.2382C25.7072 33.6259 24.5877 33.3196 22.9081 33.3196H19.8789L18.2279 41.708ZM24.5823 30.1568C27.1399 30.1568 29.0057 30.8196 30.1785 32.1454C31.3511 33.4712 31.7043 35.3217 31.2364 37.6976C31.0438 38.6763 30.7181 39.5711 30.2596 40.3817C29.8004 41.1929 29.201 41.9347 28.4602 42.6072C27.5773 43.4231 26.5966 44.0045 25.5174 44.3508C24.4382 44.698 23.0637 44.8709 21.3927 44.8709H17.6056L16.5569 50.1996H12.1357L16.0804 30.1568H24.5823Z" fill="white"/>
<path d="M41.784 45.2834C41.6593 45.2834 41.541 45.2284 41.4618 45.1333C41.3823 45.0383 41.3501 44.9133 41.3739 44.7922L43.1189 35.9241C43.2849 35.0807 43.2439 34.4753 43.0037 34.2196C42.8567 34.0632 42.415 33.801 41.109 33.801H37.9477L35.7538 44.9496C35.7156 45.1435 35.5437 45.2834 35.3437 45.2834H30.9573C30.8326 45.2834 30.7143 45.2284 30.635 45.1333C30.5556 45.0383 30.5234 44.9131 30.5472 44.7922L34.4919 24.7493C34.5301 24.5556 34.702 24.4156 34.902 24.4156H39.2884C39.4132 24.4156 39.5314 24.4706 39.6108 24.5656C39.6901 24.6608 39.7223 24.7858 39.6985 24.9068L38.7466 29.7443H42.1473C44.7381 29.7443 46.4949 30.1953 47.5181 31.1233C48.5611 32.0699 48.8865 33.5836 48.4855 35.6226L46.6501 44.9496C46.612 45.1435 46.4402 45.2834 46.2401 45.2834H41.784Z" fill="black"/>
<path d="M39.2882 24.0031H34.9018C34.5018 24.0031 34.1579 24.2831 34.0816 24.6707L30.1369 44.7136C30.0893 44.9555 30.1537 45.2057 30.3124 45.3959C30.4711 45.586 30.7076 45.696 30.9571 45.696H35.3435C35.7434 45.696 36.0874 45.4161 36.1637 45.0284L38.2919 34.2136H41.1088C42.4126 34.2136 42.6862 34.4886 42.6972 34.5004C42.7763 34.5844 42.8803 34.9736 42.7086 35.8455L40.9637 44.7136C40.916 44.9555 40.9804 45.2057 41.1391 45.3959C41.2979 45.586 41.5343 45.696 41.7838 45.696H46.2399C46.6398 45.696 46.9837 45.4161 47.06 45.0284L48.8952 35.7015C49.3259 33.5121 48.9575 31.8698 47.8006 30.8197C46.6966 29.8185 44.8474 29.3318 42.1471 29.3318H39.253L40.1084 24.9856C40.1559 24.7438 40.0917 24.4935 39.9329 24.3034C39.7742 24.1133 39.5377 24.0031 39.2882 24.0031ZM39.2882 24.8282L38.2395 30.1569H42.1471C44.6059 30.1569 46.3018 30.5807 47.2352 31.4272C48.1686 32.2743 48.4482 33.6469 48.0752 35.5442L46.2399 44.871H41.7838L43.5288 36.0029C43.7274 34.9941 43.6544 34.306 43.3096 33.9391C42.9647 33.5722 42.231 33.3885 41.1088 33.3885H37.603L35.3435 44.871H30.9571L34.9018 24.8282H39.2882Z" fill="white"/>
<path d="M55.4257 41.2957C57.1058 41.2957 58.36 40.9897 59.1536 40.3866C59.9387 39.7898 60.4809 38.7555 60.7653 37.3127C61.0303 35.9642 60.9293 35.0227 60.4652 34.5146C59.9908 33.9956 58.9651 33.7324 57.4166 33.7324H54.7317L53.2433 41.2957H55.4257ZM46.6443 50.6123C46.5197 50.6123 46.4013 50.5573 46.3221 50.4621C46.2427 50.3671 46.2104 50.242 46.2342 50.1211L50.1789 30.0782C50.2172 29.8844 50.389 29.7444 50.5891 29.7444H59.0908C61.7629 29.7444 63.7515 30.4609 65.0017 31.8741C66.2584 33.2947 66.6464 35.2805 66.1551 37.7764C65.9549 38.7932 65.6111 39.7375 65.1327 40.5829C64.6538 41.4293 64.021 42.2125 63.2513 42.9111C62.33 43.7626 61.2873 44.38 60.1549 44.7433C59.0405 45.1018 57.6093 45.2836 55.9011 45.2836H52.4584L51.4758 50.2784C51.4375 50.4723 51.2656 50.6123 51.0655 50.6123H46.6443Z" fill="black"/>
<path d="M55.0762 34.1447H57.4168C59.2856 34.1447 59.9348 34.5497 60.1554 34.791C60.5215 35.1918 60.5906 36.0367 60.3552 37.2341C60.0909 38.575 59.6009 39.5257 58.8989 40.0595C58.1801 40.606 57.0115 40.8829 55.4259 40.8829H53.7503L55.0762 34.1447ZM59.091 29.3317H50.5892C50.1893 29.3317 49.8454 29.6117 49.7691 29.9993L45.8244 50.0423C45.7768 50.2841 45.8412 50.5343 45.9998 50.7245C46.1585 50.9146 46.395 51.0247 46.6445 51.0247H51.0657C51.4656 51.0247 51.8096 50.7447 51.8859 50.357L52.8031 45.696H55.9013C57.6533 45.696 59.1283 45.5073 60.2848 45.1353C61.4741 44.7537 62.5686 44.1066 63.5371 43.212C64.3381 42.4844 64.9975 41.6677 65.4975 40.7842C65.9975 39.9004 66.3568 38.9148 66.5652 37.8549C67.0825 35.2277 66.6623 33.124 65.3163 31.6025C63.9834 30.0957 61.8889 29.3317 59.091 29.3317ZM52.7367 41.708H55.4259C57.2084 41.708 58.5362 41.3765 59.4086 40.7133C60.2813 40.0499 60.8696 38.9428 61.1754 37.3913C61.4681 35.9018 61.3348 34.8506 60.7756 34.2382C60.2158 33.6259 59.0964 33.3196 57.4168 33.3196H54.3875L52.7367 41.708ZM59.091 30.1568C61.6486 30.1568 63.5144 30.8196 64.6872 32.1454C65.8599 33.4712 66.2129 35.3217 65.745 37.6976C65.5525 38.6763 65.2268 39.5711 64.7682 40.3817C64.3091 41.1929 63.7096 41.9347 62.9688 42.6072C62.086 43.4231 61.1052 44.0045 60.026 44.3508C58.9468 44.698 57.5723 44.8709 55.9013 44.8709H52.1142L51.0657 50.1996H46.6445L50.5892 30.1568H59.091Z" fill="white"/>
</g>
<defs>
<radialGradient id="paint0_radial_484_15" cx="0" cy="0" r="1" gradientUnits="userSpaceOnUse" gradientTransform="translate(23.1156 26.0314) scale(50.5559 49.9258)">
<stop stop-color="#AEB2D5"/>
<stop offset="0.3" stop-color="#AEB2D5"/>
<stop offset="0.75" stop-color="#484C89"/>
<stop offset="1" stop-color="#484C89"/>
</radialGradient>
</defs>
</svg>
