<svg width="89" height="89" viewBox="0 0 89 89" fill="none" xmlns="http://www.w3.org/2000/svg">
<path d="M30.9414 68.4883H47.6289V79.6133H30.9414V68.4883Z" fill="#76C044"/>
<path d="M4.51953 62.9258C4.51953 66.0025 7.00527 68.4883 10.082 68.4883H68.4883C71.565 68.4883 74.0508 66.0025 74.0508 62.9258V57.3633H4.51953V62.9258Z" fill="#76C044"/>
<path d="M26.7695 79.6133H51.8008C54.8775 79.6133 57.3633 82.099 57.3633 85.1758V87.957H21.207V85.1758C21.207 82.099 23.6928 79.6133 26.7695 79.6133Z" fill="#76C044"/>
<path d="M67.6191 60.3184H65.8809V62.0566H67.6191V60.3184Z" fill="#0C1D00"/>
<path d="M62.0566 60.3184H60.3184V62.0566H62.0566V60.3184Z" fill="#0C1D00"/>
<path d="M56.4941 60.3184H54.7559V62.0566H56.4941V60.3184Z" fill="#0C1D00"/>
<path d="M19.4688 86.7402C19.1732 86.7402 18.9473 86.5143 18.9473 86.2188V83.4375C18.9473 80.0826 21.6764 77.3535 25.0312 77.3535H28.6816V67.2715H8.34375C4.98887 67.2715 2.25977 64.5424 2.25977 61.1875V19.4688C2.25977 16.1139 4.98887 13.3848 8.34375 13.3848H41.1973V5.5625C41.1973 3.7373 42.6748 2.25977 44.5 2.25977H83.4375C85.2627 2.25977 86.7402 3.7373 86.7402 5.5625V36.1562C86.7402 37.9814 85.2627 39.459 83.4375 39.459H72.834V61.1875C72.834 64.5424 70.1049 67.2715 66.75 67.2715H46.4121V77.3535H50.0625C53.4174 77.3535 56.1465 80.0826 56.1465 83.4375V86.2188C56.1465 86.5143 55.9205 86.7402 55.625 86.7402H19.4688ZM25.0312 78.3965C22.25 78.3965 19.9902 80.6562 19.9902 83.4375V85.6973H55.1035V83.4375C55.1035 80.6562 52.8438 78.3965 50.0625 78.3965H25.0312ZM29.7246 77.3535H45.3691V67.2715H29.7246V77.3535ZM3.30273 61.1875C3.30273 63.9688 5.5625 66.2285 8.34375 66.2285H66.75C69.5312 66.2285 71.791 63.9688 71.791 61.1875V56.1465H3.30273V61.1875ZM8.34375 14.4277C5.5625 14.4277 3.30273 16.6875 3.30273 19.4688V55.1035H71.791V39.459H44.5C42.6748 39.459 41.1973 37.9814 41.1973 36.1562V33.8965H26.4219C24.5967 33.8965 23.1191 32.4189 23.1191 30.5938C23.1191 28.7686 24.5967 27.291 26.4219 27.291H41.1973V14.4277H8.34375ZM42.2402 36.1562C42.2402 37.4078 43.2484 38.416 44.5 38.416H83.4375C84.6891 38.416 85.6973 37.4078 85.6973 36.1562V5.5625C85.6973 4.31094 84.6891 3.30273 83.4375 3.30273H44.5C43.2484 3.30273 42.2402 4.31094 42.2402 5.5625V27.291H59.7969C59.849 27.291 59.9186 27.3084 59.9881 27.3258L68.3145 30.107C68.4709 30.1592 68.5926 30.2809 68.6447 30.4373C68.6795 30.5764 68.6795 30.698 68.61 30.8371C68.5578 30.924 68.4709 31.0457 68.3145 31.0979L59.9881 33.8791C59.9186 33.8965 59.849 33.8965 59.7795 33.8965H42.2402V36.1562ZM26.4219 28.334C25.1703 28.334 24.1621 29.3422 24.1621 30.5938C24.1621 31.8453 25.1703 32.8535 26.4219 32.8535H59.71L66.4893 30.5938L59.71 28.334H26.4219Z" fill="#0C1D00"/>
<path d="M50.0625 14.4277C48.2373 14.4277 46.7598 12.9502 46.7598 11.125C46.7598 9.2998 48.2373 7.82227 50.0625 7.82227H77.875C79.7002 7.82227 81.1777 9.2998 81.1777 11.125C81.1777 12.9502 79.7002 14.4277 77.875 14.4277H50.0625ZM72.834 13.3848H77.875C79.1266 13.3848 80.1348 12.3766 80.1348 11.125C80.1348 9.87344 79.1266 8.86523 77.875 8.86523H72.834V13.3848ZM64.4902 13.3848H71.791V8.86523H64.4902V13.3848ZM56.1465 13.3848H63.4473V8.86523H56.1465V13.3848ZM50.0625 8.86523C48.8109 8.86523 47.8027 9.87344 47.8027 11.125C47.8027 12.3766 48.8109 13.3848 50.0625 13.3848H55.1035V8.86523H50.0625Z" fill="#0C1D00"/>
</svg>
